<svg xmlns="http://www.w3.org/2000/svg" viewBox="-12 -12 24 24">
  <path
    d="
M2.56 0.00 C 2.56 0.83 3.40 0.41 3.14 1.14 S 2.50 1.01 1.96 1.65 S 2.35 2.50 1.67 2.89
S 1.26 2.38 0.44 2.52 S 0.19 3.42 -0.58 3.29 S -0.56 2.64 -1.28 2.22 S -2.05 2.74 -2.56 2.15
S -2.12 1.66 -2.41 0.88 S -3.34 0.78 -3.34 0.00 S -2.69 -0.09 -2.41 -0.88 S -3.06 -1.55 -2.56 -2.15
S -2.00 -1.80 -1.28 -2.22 S -1.35 -3.15 -0.58 -3.29 S -0.37 -2.67 0.44 -2.52 S 0.99 -3.28 1.67 -2.89
S 1.43 -2.28 1.96 -1.65 S 2.87 -1.88 3.14 -1.14 S 2.56 -0.83 2.56 -0.00 z
M2.18 0.19L0.98 0.19A1.00 1.00 0 0 1 -0.33 0.94L-0.93 1.98A2.19 2.19 0 0 0 2.18 0.19z
M-1.25 1.79L-0.65 0.76A1.00 1.00 0 0 1 -0.65 -0.76L-1.25 -1.79A2.19 2.19 0 0 0 -1.25 1.79z
M-0.93 -1.98L-0.33 -0.94A1.00 1.00 0 0 1 0.98 -0.19L2.18 -0.19A2.19 2.19 0 0 0 -0.93 -1.98z
    "
    fill="orange"
  />
</svg>
