<svg xmlns="http://www.w3.org/2000/svg">
<style>
  .thing {
    fill: orange;
    stroke: white;
    outline: none;
    filter: url(#shadow);
  }
  .thing:hover:not([disabled]) {
    fill: red;
    filter: url(#highlight);
  }
  .thing:focus:not([disabled]) {
    fill: green;
  }
  .thing:active:not([disabled]) {
    fill: #4080c0;
  }
  .thing[disabled] {
    filter: url(#grayscale);
  }
  svg text {
    font-size: 36px;
    font-weight: bold;
    text-anchor: middle;
    dominant-baseline: middle;
    pointer-events: none;
    user-select: none;
    fill: white;
  }
  svg text::selection {
    background: none;
  }
</style>
<defs>
  <filter id="grayscale">
    <feColorMatrix
      type="matrix"
      in="SourceGraphic"
      values="
        0.2126 0.7152 0.0722 0 0
        0.2126 0.7152 0.0722 0 0
        0.2126 0.7152 0.0722 0 0
        0      0      0      1 0
      "
    />
  </filter>
  <filter id="image-filter">
    <feColorMatrix id="image-grayscale"
      type="matrix"
      in="SourceGraphic"
      values="
        0.2126 0.7152 0.0722 0 0
        0.2126 0.7152 0.0722 0 0
        0.2126 0.7152 0.0722 0 0
        0      0      0      1 0
      "
    />
    <feComponentTransfer id="image-brightness">
      <feFuncR type="linear" slope="1"/>
      <feFuncG type="linear" slope="1"/>
      <feFuncB type="linear" slope="1"/>
    </feComponentTransfer>
    <feComponentTransfer id="image-contrast">
      <feFuncR type="linear" slope="1" intercept="0"/>
      <feFuncG type="linear" slope="1" intercept="0"/>
      <feFuncB type="linear" slope="1" intercept="0"/>
    </feComponentTransfer>
  </filter>
  <filter id="shadow" x="-1" y="-1" width="3" height="3">
    <feGaussianBlur in="SourceAlpha" stdDeviation="3"/>
    <feMerge>
      <feMergeNode/>
      <feMergeNode in="SourceGraphic"/>
    </feMerge>
  </filter>
  <filter id="highlight" x="-1" y="-1" width="3" height="3">
    <feGaussianBlur in="SourceAlpha" stdDeviation="1" result="shadow"/>
    <feGaussianBlur in="SourceAlpha" stdDeviation="10" result="blur"/>
    <feFlood flood-color="white" result="color"/>
    <feComposite in="color" operator="in" in2="blur"/>
    <feMerge>
      <feMergeNode/>
      <feMergeNode in="shadow"/>
      <feMergeNode in="SourceGraphic"/>
    </feMerge>
  </filter>
  <circle id="push" r="20"/>
  <path id="arrow" d="M0 -15l20 20h-10v10h-20v-10h-10z"/>
  <path id="stamp" transform="translate(-30 -36)"
    d="
      M0 4a4 4 0 0 0 4 -4
      h4a4 4 0 0 0 8 0 h4a4 4 0 0 0 8 0 h4a4 4 0 0 0 8 0 h4a4 4 0 0 0 8 0 h4a4 4 0 0 0 4 4
      v4a4 4 0 0 0 0 8 v4a4 4 0 0 0 0 8 v4a4 4 0 0 0 0 8 v4a4 4 0 0 0 0 8 v4a4 4 0 0 0 0 8 v4a4 4 0 0 0 -4 4
      h-4a4 4 0 0 0 -8 0 h-4a4 4 0 0 0 -8 0 h-4a4 4 0 0 0 -8 0 h-4a4 4 0 0 0 -8 0 h-4a4 4 0 0 0 -4 -4
      v-4a4 4 0 0 0 0 -8 v-4a4 4 0 0 0 0 -8 v-4a4 4 0 0 0 0 -8 v-4a4 4 0 0 0 0 -8 v-4a4 4 0 0 0 0 -8 z
    "/>
</defs>
<g id="scene">
  <path d="M0 250A250 250 0 0 1 -150 -200" stroke="rgba(0, 0, 0, 0.25)" stroke-width="60" stroke-linecap="round" fill="none"/>
  <image id="image" filter="url(#image-filter)" pointer-events="none"/>
  <g id="controls" transform="translate(-200 -150)">
    <use id="center" class="thing" tabindex="0" href="#push"/>
    <use id="top"    class="thing" tabindex="0" href="#arrow" transform="rotate(0)   translate(0 -45)"/>
    <use id="right"  class="thing" tabindex="0" href="#arrow" transform="rotate(90)  translate(0 -45)"/>
    <use id="bottom" class="thing" tabindex="0" href="#arrow" transform="rotate(180) translate(0 -45)"/>
    <use id="left"   class="thing" tabindex="0" href="#arrow" transform="rotate(270) translate(0 -45)"/>
    <text x="0" y="2">&#xd7;</text>
  </g>
  <g id="deck" transform="translate(-250 0)">
    <g transform="translate(24 -24)">
      <use class="thing" href="#stamp"/>
      <text x="0" y="2">#</text>
    </g>
    <g transform="translate(0 0)">
      <use class="thing" href="#stamp"/>
      <text x="0" y="2">&amp;</text>
    </g>
    <g transform="translate(-24 24)">
      <use class="thing" href="#stamp"/>
      <text x="0" y="2">$</text>
    </g>
  </g>
  <g transform="translate(-200 150)">
    <use class="thing" disabled="true" tabindex="0" href="#push"/>
    <use class="thing" disabled="true" tabindex="0" href="#arrow" transform="rotate(0)   translate(0 -45)"/>
    <use class="thing" disabled="true" tabindex="0" href="#arrow" transform="rotate(90)  translate(0 -45)"/>
    <use class="thing" disabled="true" tabindex="0" href="#arrow" transform="rotate(180) translate(0 -45)"/>
    <use class="thing" disabled="true" tabindex="0" href="#arrow" transform="rotate(270) translate(0 -45)"/>
  </g>
</g>
</svg>
